<svg width="163" height="21" viewBox="0 0 978 126" fill="none" xmlns="http://www.w3.org/2000/svg">
<g clip-path="url(#clip0_2883_1507)">
<path d="M250.54 16.8665H277.259L263.815 112.771H237.096L250.54 16.8665ZM216.85 16.8665L198.813 72.1113L190.943 16.8665H172.255L148.644 71.9504L145.697 16.8665H119.797L128.815 112.771H150.29L176.848 52.1141L186.196 112.771H207.341L242.267 16.8665H216.857H216.85ZM441.201 72.6087H377.757C378.086 85.0649 385.547 93.2642 396.525 93.2642C404.805 93.2642 411.359 88.8391 416.442 80.3984L437.858 90.1337C430.493 104.638 414.987 114.088 395.867 114.088C369.799 114.088 352.508 96.5483 352.508 68.3518C352.508 37.3685 372.834 15.3963 401.528 15.3963C426.777 15.3963 442.679 32.4459 442.679 59.0041C442.679 63.4293 442.189 67.8544 441.201 72.6087ZM417.43 54.2498C417.43 43.1029 411.198 36.0519 401.199 36.0519C391.201 36.0519 382.343 43.432 380.054 54.2498H417.43ZM36.275 45.7653L9 77.6482H57.7058L63.1769 62.6174H42.3093L55.058 47.8718L55.1019 47.4841L46.8075 33.2139H84.1104L55.1897 112.779H74.9822L109.908 16.8665H19.6935L36.275 45.7653ZM320.706 36.0446C330.134 36.0446 338.391 41.1134 345.603 49.8027L349.392 22.7618C342.67 18.2123 333.571 15.3817 321.525 15.3817C297.592 15.3817 284.149 29.3959 284.149 47.1842C284.149 59.5234 291.031 67.0644 302.347 71.9431L307.759 74.4007C317.838 78.7015 320.545 80.8372 320.545 85.3867C320.545 89.9362 315.995 93.0887 309.069 93.0887C297.636 93.1326 288.369 87.2665 281.406 77.2679L277.544 104.813C285.48 110.862 295.654 114.073 309.069 114.073C331.816 114.073 345.794 100.959 345.794 82.7609C345.794 70.3851 340.301 62.4345 326.447 56.2027L320.545 53.416C312.345 49.7662 309.559 47.7621 309.559 43.7465C309.559 39.4018 313.369 36.0446 320.706 36.0446Z" fill="black"/>
<path d="M474.436 112.88V16.5952H508.755C516.244 16.5952 522.454 17.9557 527.37 20.6839C532.292 23.4121 535.971 27.1351 538.414 31.8528C540.857 36.5705 542.079 41.8734 542.079 47.7687C542.079 53.664 540.85 59.0108 538.385 63.7285C535.927 68.4462 532.226 72.1765 527.289 74.9193C522.352 77.6622 516.157 79.03 508.696 79.03H485.093V66.7127H507.38C512.112 66.7127 515.952 65.8935 518.9 64.2405C521.847 62.5948 524.005 60.3493 525.387 57.4967C526.77 54.6441 527.457 51.4039 527.457 47.7687C527.457 44.1335 526.77 40.9079 525.387 38.0846C524.005 35.2613 521.84 33.0524 518.878 31.4578C515.915 29.856 512.024 29.0588 507.197 29.0588H488.955V112.88H474.429H474.436Z" fill="black"/>
<path d="M568.319 16.5952V112.88H554.261V16.5952H568.319Z" fill="black"/>
<path d="M606.775 114.476C602.196 114.476 598.063 113.62 594.362 111.916C590.661 110.212 587.743 107.725 585.592 104.463C583.442 101.201 582.374 97.2072 582.374 92.4749C582.374 88.4008 583.157 85.0436 584.722 82.4177C586.287 79.7919 588.408 77.7 591.071 76.164C593.733 74.628 596.71 73.4723 600.001 72.6824C603.293 71.8925 606.643 71.3 610.059 70.8977C614.381 70.393 617.892 69.9834 620.591 69.6543C623.283 69.3252 625.243 68.7839 626.465 68.0305C627.686 67.2772 628.3 66.0557 628.3 64.3661V64.0369C628.3 59.9336 627.145 56.7519 624.848 54.4918C622.544 52.239 619.121 51.1053 614.579 51.1053C610.037 51.1053 606.124 52.1439 603.41 54.2285C600.696 56.313 598.824 58.6244 597.793 61.1624L584.583 58.1562C586.148 53.7677 588.445 50.2202 591.473 47.5066C594.494 44.793 597.983 42.8182 601.932 41.5821C605.882 40.346 610.037 39.7242 614.389 39.7242C617.27 39.7242 620.335 40.0607 623.583 40.7336C626.83 41.4065 629.866 42.6353 632.704 44.4273C635.542 46.212 637.868 48.7574 639.681 52.0634C641.495 55.3695 642.41 59.6557 642.41 64.922V112.874H628.681V103H628.118C627.211 104.821 625.843 106.606 624.029 108.361C622.208 110.117 619.874 111.572 617.022 112.735C614.169 113.898 610.753 114.476 606.775 114.476ZM609.832 103.19C613.716 103.19 617.051 102.422 619.823 100.886C622.595 99.3503 624.709 97.3389 626.172 94.8447C627.628 92.3505 628.359 89.6808 628.359 86.8282V77.5171C627.854 78.0218 626.896 78.4826 625.47 78.9069C624.044 79.3311 622.42 79.6895 620.606 79.9894C618.785 80.2893 617.014 80.5526 615.296 80.7866C613.569 81.0207 612.129 81.2182 610.973 81.3718C608.245 81.7156 605.765 82.2934 603.52 83.1126C601.281 83.9318 599.489 85.0948 598.158 86.6161C596.827 88.1375 596.161 90.1489 596.161 92.6577C596.161 96.1393 597.449 98.7651 600.016 100.535C602.583 102.305 605.86 103.19 609.839 103.19H609.832Z" fill="black"/>
<path d="M691.174 40.6666V51.9525H651.729V40.6666H691.174ZM662.305 23.3683H676.363V91.6764C676.363 94.4046 676.773 96.4453 677.585 97.8131C678.396 99.1735 679.457 100.102 680.759 100.585C682.061 101.075 683.48 101.317 685.016 101.317C686.142 101.317 687.13 101.236 687.978 101.083C688.827 100.929 689.485 100.797 689.953 100.71L692.491 112.325C691.679 112.639 690.516 112.961 689.009 113.29C687.503 113.619 685.623 113.802 683.37 113.831C679.669 113.89 676.224 113.239 673.028 111.857C669.831 110.481 667.242 108.346 665.267 105.464C663.292 102.582 662.305 98.9614 662.305 94.6021V23.3683Z" fill="black"/>
<path d="M739.593 40.6663V51.9522H698.786V40.6663H739.593ZM709.977 112.88V32.2987C709.977 27.7858 710.964 24.0336 712.939 21.042C714.914 18.0505 717.533 15.805 720.788 14.3202C724.05 12.8354 727.59 12.0894 731.415 12.0894C734.238 12.0894 736.652 12.3161 738.656 12.7696C740.66 13.2231 742.153 13.64 743.125 14.013L739.834 25.3867C739.176 25.1966 738.327 24.9698 737.296 24.7065C736.265 24.4432 735.006 24.3042 733.536 24.3042C730.121 24.3042 727.685 25.1527 726.229 26.8423C724.774 28.5319 724.042 30.9821 724.042 34.1785V112.88H709.984H709.977Z" fill="black"/>
<path d="M777.964 114.338C771.191 114.338 765.288 112.787 760.242 109.686C755.195 106.585 751.274 102.24 748.488 96.6666C745.701 91.0858 744.304 84.5687 744.304 77.1082C744.304 69.6476 745.701 63.0647 748.488 57.4547C751.274 51.8446 755.195 47.4853 760.242 44.3841C765.288 41.2828 771.198 39.7322 777.964 39.7322C784.73 39.7322 790.64 41.2828 795.687 44.3841C800.733 47.4853 804.647 51.8446 807.441 57.4547C810.227 63.0647 811.624 69.6183 811.624 77.1082C811.624 84.598 810.227 91.0858 807.441 96.6666C804.654 102.247 800.733 106.585 795.687 109.686C790.64 112.787 784.73 114.338 777.964 114.338ZM778.008 102.54C782.397 102.54 786.032 101.384 788.914 99.0583C791.795 96.7324 793.938 93.6531 795.328 89.7984C796.725 85.9438 797.42 81.6942 797.42 77.057C797.42 72.4197 796.725 68.214 795.328 64.3374C793.931 60.4682 791.795 57.3596 788.914 55.0044C786.032 52.6492 782.397 51.4789 778.008 51.4789C773.619 51.4789 769.926 52.6565 767.029 55.0044C764.133 57.3523 761.982 60.4682 760.593 64.3374C759.196 68.2067 758.501 72.449 758.501 77.057C758.501 81.665 759.196 85.9438 760.593 89.7984C761.99 93.6531 764.133 96.7397 767.029 99.0583C769.926 101.377 773.59 102.54 778.008 102.54Z" fill="black"/>
<path d="M822.889 112.881V40.6669H836.479V52.1357H837.232C838.549 48.2518 840.875 45.1871 844.21 42.9416C847.545 40.7034 851.334 39.577 855.562 39.577C856.439 39.577 857.478 39.6063 858.692 39.6721C859.899 39.7379 860.85 39.8111 861.537 39.9062V53.3498C860.974 53.1962 859.972 53.0134 858.531 52.8086C857.09 52.6038 855.649 52.5014 854.208 52.5014C850.888 52.5014 847.933 53.1962 845.343 54.5933C842.754 55.9903 840.714 57.9139 839.207 60.3789C837.7 62.8364 836.947 65.6378 836.947 68.7683V112.866H822.889V112.881Z" fill="black"/>
<path d="M870.834 112.882V40.6678H884.329V52.4218H885.221C886.728 48.4429 889.186 45.3343 892.601 43.0888C896.017 40.8506 900.106 39.7242 904.875 39.7242C909.644 39.7242 913.754 40.8506 917.031 43.1108C920.308 45.3636 922.729 48.4721 924.294 52.4218H925.047C926.774 48.5672 929.516 45.4879 933.276 43.1839C937.036 40.8799 941.519 39.7316 946.72 39.7316C953.273 39.7316 958.62 41.7869 962.775 45.8902C966.929 49.9935 969.006 56.1887 969.006 64.4612V112.882H954.948V65.7777C954.948 60.8918 953.617 57.3444 950.955 55.1501C948.292 52.9558 945.111 51.8586 941.41 51.8586C936.831 51.8586 933.276 53.263 930.738 56.0644C928.2 58.8657 926.927 62.4644 926.927 66.8529V112.882H912.92V64.8854C912.92 60.9649 911.699 57.8198 909.256 55.4353C906.813 53.0509 903.631 51.866 899.711 51.866C897.048 51.866 894.591 52.5608 892.353 53.9578C890.114 55.3549 888.308 57.2858 886.947 59.7654C885.587 62.2376 884.907 65.1121 884.907 68.367V112.889H870.849L870.834 112.882Z" fill="black"/>
</g>
<defs>
<clipPath id="clip0_2883_1507">
<rect width="960" height="102.393" fill="white" transform="translate(9 12.0824)"/>
</clipPath>
</defs>
</svg>
